<?xml version="1.0" standalone="no"?>
<!DOCTYPE svg PUBLIC "-//W3C//DTD SVG 1.1//EN" "http://www.w3.org/Graphics/SVG/1.1/DTD/svg11.dtd" >
<svg>
<metadata>
Created by FontForge 20090622 at Wed Nov  2 19:16:09 2016
 By deploy user
Copyright (c) Phanlop Thongsuk, 1995-2007. All rights reserved.
</metadata>
<defs>
<font id="KittithadaLight45" horiz-adv-x="0" >
  <font-face 
    font-family="Kittithada Light 45 (กิตติธาดา ไลท์ 45)"
    font-weight="400"
    font-stretch="normal"
    units-per-em="2048"
    panose-1="2 0 5 6 0 0 0 2 0 4"
    ascent="1638"
    descent="-410"
    x-height="698"
    cap-height="965"
    bbox="-846 -614 1499 1599"
    underline-thickness="60"
    underline-position="-135"
    unicode-range="U+0020-U+F880"
  />
<missing-glyph horiz-adv-x="1599" 
d="M100 0v1599h1399v-1599h-1399zM1401 100v1399h-1200v-1399h1200z" />
    <glyph glyph-name="saraueesp1" unicode="&#xe37;&#xe48;" 
d="M-242 1167v144h88v-144h-88zM-717 922v82h398v102h88v-102h61v102h88v-184h-635z" />
    <glyph glyph-name=".notdef" horiz-adv-x="1599" 
d="M100 0v1599h1399v-1599h-1399zM1401 100v1399h-1200v-1399h1200z" />
    <glyph glyph-name=".null" 
 />
    <glyph glyph-name="nonmarkingreturn" horiz-adv-x="512" 
 />
    <glyph glyph-name="space" unicode=" " horiz-adv-x="512" 
 />
    <glyph glyph-name="space" unicode="&#xa0;" horiz-adv-x="512" 
 />
    <glyph glyph-name="parenright" unicode=")" horiz-adv-x="352" 
d="M270 408q0 -337 -190 -621h-68q174 283 174 621q0 339 -174 622h68q190 -284 190 -622z" />
    <glyph glyph-name="asterisk" unicode="*" horiz-adv-x="475" 
d="M281 752l100 -131l-49 -35l-96 137l-97 -137l-49 35l103 131l-158 51l22 55l154 -59l-6 166h65l-6 -166l156 59l18 -57z" />
    <glyph glyph-name="plus" unicode="+" horiz-adv-x="741" 
d="M406 303v-274h-72v274h-273v72h273v272h72v-272h274v-72h-274z" />
    <glyph glyph-name="comma" unicode="," horiz-adv-x="375" 
d="M244 -2q0 -149 -119 -182v57q30 12 49 53q8 17 12 35.5t2 38.5h-57v137h113v-139v0z" />
    <glyph glyph-name="hyphen" unicode="-" horiz-adv-x="500" 
d="M82 332v80h338v-80h-338z" />
    <glyph glyph-name="period" unicode="." horiz-adv-x="375" 
d="M131 0v137h113v-137h-113z" />
    <glyph glyph-name="slash" unicode="/" horiz-adv-x="451" 
d="M53 -20h-73l421 1005h68z" />
    <glyph glyph-name="zero" unicode="0" horiz-adv-x="741" 
d="M698 467q0 -487 -327 -487q-326 0 -326 487t326 487q327 0 327 -487zM612 467q0 416 -241 416q-242 0 -242 -416t242 -416q241 0 241 416z" />
    <glyph glyph-name="one" unicode="1" horiz-adv-x="741" 
d="M371 0v700h-246v60q133 9 178 31q69 37 84 155h70v-946h-86z" />
    <glyph glyph-name="two" unicode="2" horiz-adv-x="741" 
d="M49 0q-3 151 131 270l256 187q137 109 137 233q0 91 -52.5 142t-143.5 51q-56 0 -98.5 -20.5t-70.5 -56.5t-41 -85t-11 -105h-86q-1 77 18.5 139.5t58.5 106.5t96 68t132 24q64 0 116.5 -17.5t89 -51t56.5 -83.5t20 -114q0 -143 -120 -252l-234 -166q-137 -94 -160 -192
h521v-78h-615z" />
    <glyph glyph-name="three" unicode="3" horiz-adv-x="741" 
d="M684 268q0 -68 -25 -121t-68.5 -90.5t-102 -57t-126.5 -19.5q-149 0 -235 83q-91 87 -82 234h82q-2 -56 13 -101.5t45.5 -77.5t74.5 -49.5t100 -17.5q49 0 93 14.5t76.5 41.5t51.5 66t19 87q0 96 -65 152q-63 49 -160 49h-70v71h70q37 0 69 10.5t60 30.5q61 49 61 132
q0 178 -200 178q-52 0 -93 -17t-69 -48t-42 -74.5t-11 -96.5h-84q0 67 21 123.5t59.5 97.5t93 63.5t122.5 22.5q60 0 110.5 -14t88.5 -43q86 -65 86 -184q0 -170 -155 -209v-2q192 -37 192 -234z" />
    <glyph glyph-name="four" unicode="4" horiz-adv-x="741" 
d="M547 233v-233h-76v233h-430v78l432 635h74v-641h141v-72h-141zM471 819h-2l-350 -514h352v514z" />
    <glyph glyph-name="five" unicode="5" horiz-adv-x="741" 
d="M678 301q0 -138 -90 -231q-90 -90 -228 -90q-67 0 -123.5 20.5t-98 58t-65 91t-24.5 120.5h82q1 -49 18.5 -89.5t48 -69t72 -44.5t90.5 -16q52 0 95.5 20.5t74 55.5t47.5 82t17 100q0 52 -18 97t-49.5 78t-76 52t-96.5 19q-133 0 -207 -113h-71l86 492h467v-78h-408
l-53 -317q70 88 197 88q71 0 129 -23.5t99 -66.5t63 -103t22 -133z" />
    <glyph glyph-name="six" unicode="6" horiz-adv-x="741" 
d="M696 301q0 -140 -90 -231q-89 -90 -227 -90q-326 0 -326 481q0 169 51 295q83 198 281 198q256 0 287 -247h-82q-6 40 -22.5 72.5t-42 55.5t-59 35.5t-73.5 12.5q-145 0 -209 -148q-23 -54 -35 -122.5t-12 -153.5h2q16 34 42 63t59 49t70.5 31.5t76.5 11.5
q70 0 127 -23.5t97.5 -65t62.5 -99t22 -125.5zM610 295q0 53 -15.5 98.5t-45 79.5t-71 53t-93.5 19q-53 0 -95.5 -18.5t-72 -52t-45.5 -79.5t-16 -100q0 -52 15.5 -96.5t45 -77.5t72.5 -51.5t98 -18.5q49 0 90 19.5t70.5 52.5t46 77.5t16.5 94.5z" />
    <glyph glyph-name="seven" unicode="7" horiz-adv-x="741" 
d="M668 856q-65 -65 -121.5 -141t-104.5 -166q-139 -263 -151 -549h-90q12 244 103.5 456.5t262.5 399.5h-499v78h600v-78v0z" />
    <glyph glyph-name="eight" unicode="8" horiz-adv-x="741" 
d="M692 264q0 -69 -24 -122t-72 -91q-89 -71 -227 -71q-70 0 -125.5 18t-100.5 53q-48 38 -72 91t-22 122q1 47 13.5 87.5t36 72t57 52.5t75.5 30v4q-145 44 -145 207q0 114 90 180q38 29 87 43t106 14t105.5 -14t86.5 -43q90 -65 90 -180q0 -162 -145 -209v-2
q186 -40 186 -242zM569 717q0 39 -15 70t-41.5 52t-63.5 32.5t-80 11.5q-40 0 -76 -11.5t-63.5 -32.5t-43.5 -52t-16 -70q0 -91 63 -135q51 -39 136 -39q42 0 78.5 11t63.5 33t42.5 54.5t15.5 75.5zM606 264q0 97 -71 156q-63 51 -166 51q-50 0 -93 -13.5t-75 -40t-50 -65
t-18 -88.5q0 -102 70 -160q32 -26 73.5 -39.5t92.5 -13.5q52 0 95.5 14t75 41t49 67t17.5 91z" />
    <glyph glyph-name="nine" unicode="9" horiz-adv-x="741" 
d="M688 483q0 -94 -12.5 -170.5t-38.5 -138.5q-83 -194 -281 -194q-256 0 -286 247h82q5 -40 21.5 -72.5t42 -56t59 -36.5t73.5 -13q145 0 209 148q47 108 47 276h-2q-18 -35 -44 -63.5t-58.5 -49t-69.5 -32t-76 -11.5q-70 0 -127 23t-97.5 65t-62.5 100t-22 128
q0 139 90 229q89 92 227 92q326 0 326 -471zM586 639q0 106 -58 170q-32 35 -75 53.5t-99 18.5q-49 0 -90 -19t-70.5 -52t-46 -77t-16.5 -94q0 -53 15.5 -98.5t45 -79.5t71 -53t93.5 -19q54 0 96 18.5t74 55.5q60 69 60 176z" />
    <glyph glyph-name="colon" unicode=":" horiz-adv-x="375" 
d="M131 539v137h113v-137h-113zM131 0v137h113v-137h-113z" />
    <glyph glyph-name="semicolon" unicode=";" horiz-adv-x="375" 
d="M131 539v137h113v-137h-113zM244 -2q0 -149 -119 -182v57q30 12 49 53q8 17 12 35.5t2 38.5h-57v137h113v-139z" />
    <glyph glyph-name="less" unicode="&#x3c;" horiz-adv-x="741" 
d="M61 305v74l619 315v-78l-535 -274l535 -274v-78z" />
    <glyph glyph-name="equal" unicode="=" horiz-adv-x="741" 
d="M61 438v72h619v-72h-619zM61 172v72h619v-72h-619z" />
    <glyph glyph-name="greater" unicode="&#x3e;" horiz-adv-x="741" 
d="M61 -10v78l535 274l-535 274v78l619 -315v-74z" />
    <glyph glyph-name="question" unicode="?" horiz-adv-x="725" 
d="M653 735q0 -103 -63 -178l-115 -115q-63 -69 -63 -155v-45h-86v34q0 109 63 187l119 123q61 64 61 145q0 40 -15 73.5t-41.5 57.5t-62 37.5t-75.5 13.5q-53 0 -94 -18t-68.5 -50t-41.5 -77.5t-13 -99.5h-84q0 73 21 131.5t60 99.5t95.5 63.5t128.5 22.5q58 0 108.5 -17.5
t87 -50t57.5 -78.5t21 -104zM311 0v137h115v-137h-115z" />
    <glyph glyph-name="at" unicode="@" horiz-adv-x="1081" 
d="M1018 565q0 -155 -98 -276q-99 -117 -215 -117q-103 0 -91 92h-4q-84 -90 -172 -90q-40 0 -72.5 15.5t-56 42t-36.5 62.5t-13 77q0 147 88 266q95 125 234 125q99 0 143 -115l33 88h71l-129 -389q-8 -23 -11 -41.5t-3 -32.5q0 -39 31 -39q86 0 157 109q72 108 72 227
q0 162 -115 260q-105 95 -268 95q-189 0 -309 -129q-119 -128 -119 -318q0 -100 30.5 -178.5t90.5 -138.5q119 -119 309 -119q50 0 100 12.5t95.5 35.5t85 56.5t67.5 75.5h70q-31 -55 -76 -99.5t-99.5 -76t-116.5 -48.5t-126 -17q-223 0 -362 133q-140 137 -140 374
q0 106 36 193t108 160q145 145 352 145q200 0 328 -119q131 -116 131 -301zM682 563q0 24 -9 47t-23.5 40.5t-34 28.5t-40.5 11q-94 0 -165 -108q-64 -98 -64 -205q0 -60 31.5 -95.5t81.5 -35.5q86 0 157 114q66 107 66 203z" />
    <glyph glyph-name="A" unicode="A" horiz-adv-x="840" 
d="M752 0l-113 301h-438l-115 -301h-98l385 965h102l375 -965h-98zM424 872h-4l-191 -493h379z" />
    <glyph glyph-name="B" unicode="B" horiz-adv-x="887" 
d="M842 274q0 -274 -342 -274h-404v965h404q305 0 305 -244q0 -177 -166 -213v-2q46 -6 83.5 -25.5t64 -50t41 -70t14.5 -86.5zM715 707q0 178 -215 178h-314v-342h314q215 0 215 164zM750 276q0 187 -250 187h-314v-385h314q250 0 250 198z" />
    <glyph glyph-name="C" unicode="C" horiz-adv-x="938" 
d="M895 365q-9 -89 -40.5 -160.5t-83 -121.5t-120.5 -76.5t-153 -26.5q-211 0 -334 153q-113 137 -113 348q0 213 113 350q120 154 334 154q143 0 252 -80q57 -43 90 -101t41 -130h-90q-9 54 -36 97.5t-66 73.5t-88 46t-103 16q-176 0 -273 -133q-84 -119 -84 -293
q0 -172 84 -291q100 -133 273 -133q127 0 215 90q80 85 92 218h90v0z" />
    <glyph glyph-name="D" unicode="D" horiz-adv-x="911" 
d="M864 481q0 -481 -436 -481h-332v965h332q436 0 436 -484zM772 481q0 108 -23 184.5t-71 125t-123 71.5t-178 23h-191v-807h191q103 0 178 23t123 72t71 125t23 183z" />
    <glyph glyph-name="E" unicode="E" horiz-adv-x="788" 
d="M96 0v965h654v-80h-564v-346h527v-80h-527v-381h570v-78h-660z" />
    <glyph glyph-name="F" unicode="F" horiz-adv-x="715" 
d="M186 885v-346h459v-80h-459v-459h-90v965h600v-80h-510z" />
    <glyph glyph-name="G" unicode="G" horiz-adv-x="991" 
d="M848 0l-12 160h-2q-92 -180 -334 -180q-213 0 -336 153q-113 137 -113 348q0 213 113 350q123 154 336 154q156 0 262 -80q113 -82 137 -239h-90q-15 92 -92 163q-90 78 -217 78q-176 0 -273 -133q-86 -118 -86 -293q0 -173 86 -291q97 -133 273 -133q156 0 248 101
q86 95 86 254h-330v80h407v-492h-63z" />
    <glyph glyph-name="H" unicode="H" horiz-adv-x="942" 
d="M754 0v467h-568v-467h-90v965h90v-418h568v418h92v-965h-92z" />
    <glyph glyph-name="I" unicode="I" horiz-adv-x="301" 
d="M104 0v965h93v-965h-93z" />
    <glyph glyph-name="J" unicode="J" horiz-adv-x="666" 
d="M569 268q0 -147 -61 -217q-68 -71 -217 -71q-289 0 -266 329h90q0 -104 22 -157q40 -95 162 -95q51 0 85.5 13.5t55.5 43.5t30 77.5t9 115.5v658h90v-697v0z" />
    <glyph glyph-name="K" unicode="K" horiz-adv-x="864" 
d="M766 0l-393 506l-187 -182v-324h-90v965h90v-519l553 519h123l-426 -398l445 -567h-115z" />
    <glyph glyph-name="L" unicode="L" horiz-adv-x="711" 
d="M96 0v965h90v-887h529v-78h-619z" />
    <glyph glyph-name="M" unicode="M" horiz-adv-x="1112" 
d="M926 0v836h-4l-324 -836h-86l-326 836h-2v-836h-92v965h133l330 -848l328 848h135v-965h-92z" />
    <glyph glyph-name="N" unicode="N" horiz-adv-x="938" 
d="M741 0l-553 821h-2v-821h-92v965h103l553 -815h2v815h92v-965h-103z" />
    <glyph glyph-name="O" unicode="O" horiz-adv-x="991" 
d="M946 481q0 -211 -112 -348q-126 -153 -338 -153t-338 153q-113 137 -113 348q0 213 113 350q126 154 338 154t338 -154q112 -137 112 -350zM856 481q0 175 -86 293q-98 133 -274 133q-175 0 -275 -133q-86 -118 -86 -293q0 -173 86 -291q100 -133 275 -133q176 0 274 133
q86 121 86 291z" />
    <glyph glyph-name="P" unicode="P" horiz-adv-x="840" 
d="M801 686q0 -65 -20 -117t-57 -88t-89.5 -55.5t-116.5 -19.5h-332v-406h-90v965h422q64 0 116.5 -19.5t89.5 -55.5t57 -88t20 -116zM711 686q0 97 -58 148t-155 51h-312v-404h312q97 0 155 53t58 152z" />
    <glyph glyph-name="Q" unicode="Q" horiz-adv-x="991" 
d="M946 481q0 -241 -145 -381l137 -106l-47 -55l-148 112q-101 -71 -247 -71q-212 0 -338 153q-113 137 -113 348q0 213 113 350q126 154 338 154t338 -154q112 -137 112 -350zM856 481q0 175 -86 293q-98 133 -274 133q-175 0 -275 -133q-86 -118 -86 -293q0 -173 86 -291
q100 -133 275 -133q51 0 95.5 12t82.5 35l-125 97l47 59l139 -106q121 119 121 327z" />
    <glyph glyph-name="R" unicode="R" horiz-adv-x="891" 
d="M750 0q-10 14 -16 52t-9 98q-5 68 -12.5 115t-20.5 75q-42 88 -157 88h-349v-428h-90v965h439q127 0 204 -62q86 -64 86 -190q0 -209 -180 -246v-2q151 -18 160 -217q3 -56 4.5 -88t3.5 -43q9 -88 37 -117h-100zM735 696q0 189 -207 189h-342v-379h342q43 0 81 13.5
t66 38.5t44 60t16 78z" />
    <glyph glyph-name="S" unicode="S" horiz-adv-x="840" 
d="M791 256q0 -93 -56 -164q-87 -112 -307 -112q-181 0 -278 79q-54 44 -80 106.5t-21 147.5h90q-6 -256 310 -256q89 0 163 45q88 54 88 152q0 93 -100 139q-22 11 -76.5 26.5t-142.5 35.5q-74 17 -126 36t-83 39q-94 64 -94 183q0 100 63 172q90 100 265 100
q75 0 136.5 -18.5t110.5 -57.5q105 -83 105 -223h-90q-2 53 -23 94t-56 69.5t-81.5 43t-99.5 14.5q-238 0 -238 -192q0 -108 162 -154l297 -78q162 -68 162 -227z" />
    <glyph glyph-name="T" unicode="T" horiz-adv-x="731" 
d="M412 885v-885h-90v885h-328v80h743v-80h-325z" />
    <glyph glyph-name="U" unicode="U" horiz-adv-x="915" 
d="M829 348q0 -163 -86 -258q-97 -110 -284 -110t-285 110q-88 95 -88 258v617h92v-596q0 -312 281 -312q278 0 278 312v596h92v-617v0z" />
    <glyph glyph-name="V" unicode="V" horiz-adv-x="788" 
d="M449 0h-107l-354 965h96l309 -867h2l312 867h96z" />
    <glyph glyph-name="W" unicode="W" horiz-adv-x="1208" 
d="M944 0h-98l-240 864h-2l-242 -864h-98l-268 965h92l225 -838h2l234 838h113l231 -838h2l225 838h92z" />
    <glyph glyph-name="X" unicode="X" horiz-adv-x="764" 
d="M672 0l-291 426l-293 -426h-104l344 496l-324 469h102l275 -404l276 404h103l-326 -469l342 -496h-104z" />
    <glyph glyph-name="Y" unicode="Y" horiz-adv-x="813" 
d="M453 393v-393h-93v393l-374 572h106l316 -496l313 496h106z" />
    <glyph glyph-name="Z" unicode="Z" horiz-adv-x="772" 
d="M6 0v82l633 803h-590v80h694v-80l-637 -807h648v-78h-748z" />
    <glyph glyph-name="bracketleft" unicode="[" horiz-adv-x="322" 
d="M96 -213v1243h219v-72h-133v-1099h133v-72h-219z" />
    <glyph glyph-name="backslash" unicode="\" horiz-adv-x="444" 
d="M391 -20l-411 1005h69l414 -1005h-72z" />
    <glyph glyph-name="bracketright" unicode="]" horiz-adv-x="322" 
d="M6 -213v72h133v1099h-133v72h217v-1243h-217z" />
    <glyph glyph-name="asciicircum" unicode="^" horiz-adv-x="799" 
d="M659 322l-260 526l-260 -526h-80l306 612h69l305 -612h-80z" />
    <glyph glyph-name="underscore" unicode="_" horiz-adv-x="676" 
d="M0 -168v68h676v-68h-676z" />
    <glyph glyph-name="grave" unicode="`" horiz-adv-x="246" 
d="M135 795l-176 190h109l137 -190h-70z" />
    <glyph glyph-name="a" unicode="a" horiz-adv-x="692" 
d="M680 6q-32 -6 -55 -6q-99 0 -99 113h-4q-83 -133 -250 -133q-100 0 -161 49q-68 56 -68 155q0 131 117 176q58 25 252 48q29 3 47.5 8.5t29.5 13.5q29 21 29 74q0 141 -180 141q-176 0 -182 -164h-84q12 236 274 236q258 0 258 -223v-371q0 -51 47 -51q17 0 29 6v-72z
M518 381h-2q-9 -22 -70 -31q-54 -11 -106.5 -20l-106.5 -19q-106 -33 -106 -123q0 -31 12.5 -56t33.5 -43t49 -28t59 -10q49 0 92 16t75.5 44.5t51 69t18.5 89.5v111z" />
    <glyph glyph-name="b" unicode="b" horiz-adv-x="764" 
d="M719 348q0 -154 -78 -258q-85 -110 -233 -110q-187 0 -248 149h-2v-129h-78v965h84v-396h2q24 69 96 111q64 37 146 37q147 0 233 -111q78 -102 78 -258zM633 348q0 60 -13.5 110.5t-39.5 92.5q-58 94 -172 94q-125 0 -189 -94q-55 -79 -55 -203q0 -123 55 -203
q64 -94 189 -94q114 0 172 94q26 42 39.5 92.5t13.5 110.5z" />
    <glyph glyph-name="c" unicode="c" horiz-adv-x="692" 
d="M657 250q-4 -62 -26.5 -112t-60 -85t-88.5 -54t-111 -19q-154 0 -242 110q-84 104 -84 258q0 158 86 262q88 107 240 107q57 0 105.5 -15.5t85 -46t59.5 -75.5t30 -103h-82q-36 168 -198 168q-112 0 -181 -92q-61 -84 -61 -205q0 -118 61 -203q69 -94 181 -94
q40 0 75.5 14.5t62.5 41t43.5 63t20.5 80.5h84v0z" />
    <glyph glyph-name="d" unicode="d" horiz-adv-x="764" 
d="M606 0v129h-2q-12 -34 -37 -61.5t-58.5 -47t-72.5 -30t-80 -10.5q-149 0 -231 110q-78 104 -78 258q0 156 78 258q82 111 231 111q41 0 79 -9.5t70.5 -28t56.5 -45.5t36 -61h4v392h82v-965h-78zM602 348q0 124 -55 203q-64 94 -191 94q-111 0 -172 -94
q-26 -42 -39.5 -92.5t-13.5 -110.5t13.5 -110.5t39.5 -92.5q61 -94 172 -94q127 0 191 94q55 80 55 203z" />
    <glyph glyph-name="e" unicode="e" horiz-adv-x="696" 
d="M127 326q0 -106 53 -185q66 -90 174 -90q174 0 219 178h84q-59 -249 -303 -249q-155 0 -237 110q-74 100 -74 258q0 153 74 254q86 115 237 115q157 0 240 -121q70 -107 65 -270h-532zM575 397q-2 52 -18.5 97t-45 78.5t-68.5 53t-89 19.5q-96 0 -159 -76
q-56 -68 -68 -172h448z" />
    <glyph glyph-name="f" unicode="f" horiz-adv-x="354" 
d="M383 881q-8 8 -28 10t-54 0q-58 -3 -78 -43q-14 -27 -14 -92v-58h135v-71h-135v-627h-84v627h-117v71h117v72q0 94 37 142t131 53q22 2 44.5 -1t45.5 -8v-75v0z" />
    <glyph glyph-name="g" unicode="g" horiz-adv-x="743" 
d="M664 57q0 -336 -308 -336q-113 0 -190 50q-45 29 -68 69t-28 92h86q24 -137 200 -137q226 0 226 262v80h-4q-64 -137 -222 -137q-154 0 -237 109q-74 98 -74 258q0 75 21 136.5t63 112.5q82 101 227 101q38 0 72.5 -9.5t64 -27t51.5 -42t34 -54.5h4v114h82v-641zM582 356
q0 59 -14 108t-40 89q-62 92 -172 92q-109 0 -172 -90q-55 -79 -55 -199q0 -117 55 -196q60 -88 172 -88q103 0 168 90q58 79 58 194z" />
    <glyph glyph-name="h" unicode="h" horiz-adv-x="715" 
d="M557 0v436q0 209 -178 209q-49 0 -89 -17.5t-68 -49t-43 -75t-15 -95.5v-408h-86v965h86v-383h2q12 31 34.5 56.5t51.5 42.5t63.5 26.5t71.5 9.5q252 0 252 -268v-449h-82z" />
    <glyph glyph-name="i" unicode="i" horiz-adv-x="246" 
d="M80 825v140h86v-140h-86zM80 0v698h86v-698h-86z" />
    <glyph glyph-name="j" unicode="j" horiz-adv-x="246" 
d="M80 825v140h86v-140h-86zM166 -80q0 -178 -148 -178q-20 0 -37.5 1t-31.5 3v78q17 -2 31 -3t26 -1q74 3 74 100v778h86v-778z" />
    <glyph glyph-name="k" unicode="k" horiz-adv-x="666" 
d="M575 0l-276 379l-135 -125v-254h-84v965h84v-605l381 338h110l-297 -268l318 -430h-101z" />
    <glyph glyph-name="l" unicode="l" horiz-adv-x="250" 
d="M82 0v965h86v-965h-86z" />
    <glyph glyph-name="m" unicode="m" horiz-adv-x="1110" 
d="M946 0v467q0 178 -158 178q-190 0 -190 -250v-395h-86v473q0 172 -143 172q-104 0 -158 -76q-47 -71 -47 -180v-389h-84v698h78v-112h2q61 131 221 131q165 0 203 -135q58 135 213 135q231 0 231 -244v-473h-82z" />
    <glyph glyph-name="n" unicode="n" horiz-adv-x="715" 
d="M557 0v436q0 209 -178 209q-49 0 -89 -17.5t-68 -49t-43 -75t-15 -95.5v-408h-86v698h86v-116h2q10 31 32 56t52 42.5t65 27t72 9.5q252 0 252 -268v-449h-82z" />
    <glyph glyph-name="o" unicode="o" horiz-adv-x="743" 
d="M700 348q0 -156 -84 -258q-91 -110 -245 -110t-242 110q-84 104 -84 258q0 158 86 262q88 107 240 107q153 0 245 -109q84 -101 84 -260zM614 348q0 60 -15 111.5t-46 93.5q-68 92 -182 92q-112 0 -181 -92q-61 -84 -61 -205q0 -118 61 -203q69 -94 181 -94q115 0 182 94
q61 83 61 203z" />
    <glyph glyph-name="p" unicode="p" horiz-adv-x="764" 
d="M719 348q0 -154 -78 -258q-85 -110 -233 -110q-183 0 -242 145h-2v-383h-84v956h78v-129h2q58 148 248 148q147 0 233 -111q78 -102 78 -258zM633 348q0 60 -13.5 110.5t-39.5 92.5q-58 94 -172 94q-244 0 -244 -297q0 -123 55 -203q64 -94 189 -94q114 0 172 94
q26 42 39.5 92.5t13.5 110.5z" />
    <glyph glyph-name="q" unicode="q" horiz-adv-x="764" 
d="M600 -258v383h-2q-59 -145 -242 -145q-148 0 -233 110q-78 104 -78 258q0 156 78 258q85 111 233 111q190 0 248 -148h2v129h78v-956h-84zM600 348q0 297 -244 297q-114 0 -172 -94q-26 -42 -39.5 -92.5t-13.5 -110.5t13.5 -110.5t39.5 -92.5q58 -94 172 -94
q127 0 191 94q53 82 53 203z" />
    <glyph glyph-name="r" unicode="r" horiz-adv-x="420" 
d="M420 621q-109 9 -184 -66q-72 -74 -72 -184v-371h-84v698h78v-149h2q12 37 37 67.5t59 51.5t76 31.5t88 7.5v-86v0z" />
    <glyph glyph-name="s" unicode="s" horiz-adv-x="639" 
d="M600 188q0 -102 -90 -161q-77 -47 -186 -47q-271 0 -283 241h84q3 -81 61 -127q54 -43 142 -43q71 0 123 31q63 32 63 102q0 83 -117 119l-215 57q-116 46 -116 162q0 97 77 150q67 45 170 45q253 0 262 -219h-83q-8 147 -181 147q-62 0 -108 -29q-53 -33 -53 -90
q0 -77 116 -110l217 -58q117 -51 117 -170z" />
    <glyph glyph-name="t" unicode="t" horiz-adv-x="397" 
d="M360 -6q-14 -2 -32.5 -3t-44.5 1q-43 2 -72.5 11t-47.5 27t-26 47.5t-8 72.5v477h-119v71h119v209h84v-209h143v-71h-143v-471q0 -85 72 -93q23 -2 42 -1t33 6v-74v0z" />
    <glyph glyph-name="u" unicode="u" horiz-adv-x="719" 
d="M563 0v117h-2q-67 -137 -239 -137q-244 0 -244 264v454h86v-454q0 -193 184 -193q51 0 90 21.5t68 64.5q26 38 38.5 87t12.5 108v366h82v-698h-76z" />
    <glyph glyph-name="v" unicode="v" horiz-adv-x="616" 
d="M352 0h-88l-268 698h90l221 -604h2l221 604h91z" />
    <glyph glyph-name="w" unicode="w" horiz-adv-x="961" 
d="M741 0h-90l-170 586h-2l-168 -586h-92l-221 698h88l178 -594h2l168 594h94l168 -594h2l179 594h88z" />
    <glyph glyph-name="x" unicode="x" horiz-adv-x="639" 
d="M543 0l-224 301l-221 -301h-96l266 362l-245 336h98l198 -272l201 272h98l-247 -336l268 -362h-96z" />
    <glyph glyph-name="y" unicode="y" horiz-adv-x="614" 
d="M317 -106q-16 -45 -32 -75t-36.5 -47t-48.5 -24t-67 -6q-47 0 -65 6v72q30 -6 57 -6q26 0 45 7t33 21q21 22 43 80l28 80l-274 696h86l229 -598l213 598h86z" />
    <glyph glyph-name="z" unicode="z" horiz-adv-x="616" 
d="M20 0v68l451 559h-424v71h531v-61l-459 -565h477v-72h-576z" />
    <glyph glyph-name="braceleft" unicode="{" horiz-adv-x="444" 
d="M328 -213q-127 0 -127 168v201q0 217 -95 217v71q95 0 95 213v205q0 168 127 168h65v-69h-35q-71 0 -71 -119v-213q0 -154 -92 -219v-2q92 -65 92 -220v-211q0 -118 71 -118h35v-72h-65z" />
    <glyph glyph-name="bar" unicode="|" horiz-adv-x="297" 
d="M113 -20v1005h71v-1005h-71z" />
    <glyph glyph-name="braceright" unicode="}" horiz-adv-x="444" 
d="M336 373q-94 0 -94 -217v-201q0 -168 -127 -168h-66v72h35q72 0 72 118v211q0 156 92 220v2q-92 64 -92 219v213q0 119 -72 119h-35v69h66q127 0 127 -168v-205q0 -213 94 -213v-71v0z" />
    <glyph glyph-name="asciitilde" unicode="~" horiz-adv-x="799" 
d="M707 377q-65 -117 -166 -117q-59 0 -148 43q-45 23 -80 34t-61 11q-66 0 -113 -92l-47 47q58 117 170 117q32 0 69 -11t81 -34q87 -43 131 -43q66 0 116 94l48 -49v0z" />
    <glyph glyph-name="quotedbl" unicode="&#x22;" horiz-adv-x="500" 
d="M297 637v328h82v-328h-82zM121 637v328h82v-328h-82z" />
    <glyph glyph-name="exclam" unicode="!" horiz-adv-x="322" 
d="M184 240h-47l-20 422v303h88v-303zM106 0v137h111v-137h-111z" />
    <glyph glyph-name="guillemotleft" unicode="&#xab;" horiz-adv-x="567" 
d="M295 330v84l180 168v-90l-129 -119l129 -121v-90zM80 330v84l180 168v-90l-129 -119l129 -121v-90z" />
    <glyph glyph-name="logicalnot" unicode="&#xac;" horiz-adv-x="741" 
d="M616 119v178h-574v90h656v-268h-82z" />
    <glyph glyph-name="registered" unicode="&#xae;" horiz-adv-x="1081" 
d="M1044 483q0 -213 -145 -358t-358 -145q-212 0 -359 145q-145 145 -145 358q0 107 36.5 195.5t108.5 161.5q147 145 359 145q213 0 358 -145q72 -73 108.5 -161.5t36.5 -195.5zM965 483q0 179 -121 305q-119 125 -303 125q-91 0 -167 -31t-136 -94q-121 -126 -121 -305
q0 -180 121 -307q60 -63 136 -94t167 -31q184 0 303 125q121 127 121 307zM713 193l-162 258h-121v-258h-72v581h224q188 0 188 -162q0 -140 -145 -161l172 -258h-84zM698 612q0 101 -137 101h-131v-203h94q44 0 74 3t47 11q53 23 53 88z" />
    <glyph glyph-name="degree" unicode="&#xb0;" horiz-adv-x="541" 
d="M266 915q43 0 80.5 -16t65 -43t43.5 -64t16 -79t-16 -79t-43.5 -64.5t-65 -43.5t-80.5 -16q-41 0 -77 15.5t-63.5 43t-43.5 64.5t-16 80q0 40 15.5 77t42.5 64.5t63.5 44t78.5 16.5zM266 858q-31 0 -57.5 -11t-46 -30.5t-30.5 -46t-11 -57.5q0 -30 11.5 -57t31 -47
t46 -32t56.5 -12q61 0 105 43q45 46 45 105q0 30 -12 56.5t-32.5 46t-47.5 31t-58 11.5z" />
    <glyph glyph-name="paragraph" unicode="&#xb6;" horiz-adv-x="727" 
d="M629 -244h-62v1356h-145v-1356h-55v805q-168 0 -263 62q-104 74 -104 235q0 153 94 229q90 66 248 66h389v-41h-102v-1356z" />
    <glyph glyph-name="periodcentered" unicode="&#xb7;" horiz-adv-x="338" 
d="M170 520q31 0 51.5 -21.5t20.5 -49.5q0 -31 -21.5 -52.5t-50.5 -21.5q-33 0 -53.5 20.5t-20.5 53.5q0 30 20.5 50.5t53.5 20.5z" />
    <glyph glyph-name="periodcentered" unicode="&#x2219;" horiz-adv-x="338" 
d="M170 520q31 0 51.5 -21.5t20.5 -49.5q0 -31 -21.5 -52.5t-50.5 -21.5q-33 0 -53.5 20.5t-20.5 53.5q0 30 20.5 50.5t53.5 20.5z" />
    <glyph glyph-name="guillemotright" unicode="&#xbb;" horiz-adv-x="567" 
d="M307 162v90l129 121l-129 119v90l180 -168v-84zM92 162v90l129 121l-129 119v90l180 -168v-84z" />
    <glyph glyph-name="multiply" unicode="&#xd7;" horiz-adv-x="741" 
d="M621 37l-252 252l-250 -250l-51 49l249 252l-249 250l51 51l250 -252l252 252l51 -49l-252 -252l252 -252z" />
    <glyph glyph-name="divide" unicode="&#xf7;" horiz-adv-x="741" 
d="M446 612q0 -31 -22 -53t-53 -22t-53.5 22t-22.5 53t22.5 53.5t53.5 22.5t53 -22.5t22 -53.5zM61 303v72h619v-72h-619zM446 68q0 -31 -22 -53.5t-53 -22.5t-53.5 22.5t-22.5 53.5t22.5 53t53.5 22t53 -22t22 -53z" />
    <glyph glyph-name="uni0E00" unicode="&#xe00;" horiz-adv-x="205" 
 />
    <glyph glyph-name="uni0E01" unicode="&#xe01;" horiz-adv-x="811" 
d="M641 0v549q0 97 -70 151q-65 50 -165 50q-163 0 -236 -111v-639h-88v664q115 170 324 170q134 0 225 -68q98 -77 98 -203v-563h-88z" />
    <glyph glyph-name="uni0E02" unicode="&#xe02;" horiz-adv-x="737" 
d="M655 272q0 -123 -82 -204q-81 -82 -208 -82q-136 0 -226 96t-90 240q0 94 44 176.5t132 154.5l-96 129l74 49l135 -184q-201 -163 -201 -325q0 -53 17 -99t47 -80t72 -53.5t92 -19.5q45 0 82 15.5t64 42.5t41.5 64t14.5 80v547h88v-547v0z" />
    <glyph glyph-name="uni0E03" unicode="&#xe03;" horiz-adv-x="748" 
d="M666 274q0 -62 -21.5 -114.5t-60 -91t-91 -60.5t-114.5 -22q-135 0 -223 92q-45 46 -66.5 105.5t-21.5 131.5q0 194 190 314v76l-72 -66q-17 22 -41 45q-27 26 -56 46t-60 36l51 63q67 -33 115 -79l69 69h80v-227q-42 -20 -75.5 -47t-59.5 -62q-29 -38 -43 -80.5
t-14 -87.5q0 -54 17 -99.5t47 -77.5t71.5 -50t91.5 -18q44 0 80.5 15.5t63 43t41 64.5t14.5 81v545h88v-545v0z" />
    <glyph glyph-name="uni0E04" unicode="&#xe04;" horiz-adv-x="811" 
d="M641 0v559q0 42 -18.5 76.5t-50.5 59t-75 37.5t-91 13q-49 0 -92 -13t-75 -37.5t-50.5 -59t-18.5 -76.5v-100h252v-86h-252v-373h-88v559q0 119 96 197q48 38 104.5 58t123.5 20q66 0 122.5 -20t104.5 -58q96 -78 96 -197v-559h-88z" />
    <glyph glyph-name="uni0E05" unicode="&#xe05;" horiz-adv-x="852" 
d="M682 0v571q0 33 -9 63.5t-25.5 55t-39 40.5t-49.5 20l-133 -162l-133 162q-27 -4 -49.5 -20t-39 -40.5t-25.5 -55t-9 -63.5v-112h272v-86h-272v-373h-88v571q0 55 17 103t48.5 83.5t75.5 56t99 20.5l104 -121l104 121q55 0 99 -20.5t75.5 -56t48.5 -83.5t17 -103v-571
h-88z" />
    <glyph glyph-name="uni0E06" unicode="&#xe06;" horiz-adv-x="821" 
d="M739 258q0 -65 -20 -115.5t-56.5 -85t-88 -53t-113.5 -18.5q-182 0 -277 125v-111h-88v498q0 51 62 98q63 45 63 78v35l-82 -62q-22 36 -129 121l60 61q26 -21 46 -39.5t34 -33.5l81 63h78v-160q0 -37 -63 -81q-62 -47 -62 -93v-200q0 -82 78 -154q79 -70 182 -70
q207 0 207 205v553h88v-561v0z" />
    <glyph glyph-name="uni0E07" unicode="&#xe07;" horiz-adv-x="768" 
d="M719 410q0 -98 -30 -174.5t-86 -130t-136.5 -81.5t-181.5 -28q-19 0 -37.5 1t-38.5 3l-201 801l90 20l183 -741q80 -2 144.5 19t110.5 63.5t70.5 105t24.5 142.5q0 76 -20.5 136t-61 101.5t-100.5 63.5t-140 22h-27.5t-27.5 -2v88q15 2 30 2h29q198 0 305 -110
q101 -107 101 -301z" />
    <glyph glyph-name="uni0E08" unicode="&#xe08;" horiz-adv-x="782" 
d="M733 426q0 -197 -131 -322t-342 -110l-98 426h-82v86h156l94 -426q137 3 225 100q90 104 90 246q0 70 -21.5 129t-60 101t-92.5 65.5t-119 23.5q-156 0 -278 -122l-70 59q146 152 352 152q172 0 275 -115q51 -57 76.5 -129.5t25.5 -163.5z" />
    <glyph glyph-name="uni0E09" unicode="&#xe09;" horiz-adv-x="788" 
d="M618 0v111q-109 -125 -274 -125q-262 0 -262 250v151h-59v88h145v-231q0 -183 192 -183q97 0 179 68q79 67 79 154v276q0 42 -19 77.5t-51 60.5t-74 39t-89 14q-42 0 -81.5 -10.5t-74.5 -30.5q-38 -23 -62.5 -51.5t-33.5 -63.5h-90q24 109 129 176q95 64 213 64
q66 0 121.5 -20t103.5 -58q97 -77 97 -197v-504l26 -55h-115z" />
    <glyph glyph-name="uni0E0A" unicode="&#xe0a;" horiz-adv-x="745" 
d="M696 322q0 -74 -24.5 -135t-71.5 -105t-115.5 -68.5t-156.5 -25.5q-66 -2 -127.5 10t-118.5 35v786h88v-723q67 -27 160 -24q131 5 204.5 69.5t73.5 180.5q0 231 -289 292l228 215l65 -53l-141 -131q225 -101 225 -323z" />
    <glyph glyph-name="uni0E0B" unicode="&#xe0b;" horiz-adv-x="766" 
d="M717 322q0 -74 -24.5 -135t-72 -105t-115.5 -68.5t-155 -25.5q-66 -2 -127.5 10t-118.5 35v459q0 53 54 104q53 50 53 78v35l-82 -62q-22 36 -129 121l57 61q26 -20 47 -38t35 -35l80 63h80v-153q0 -37 -53 -88q-53 -53 -53 -101v-383q42 -12 81.5 -18t77.5 -4
q131 5 204 69.5t73 180.5q0 230 -289 292l229 215l64 -53l-137 -131q221 -101 221 -323z" />
    <glyph glyph-name="uni0E0C" unicode="&#xe0c;" horiz-adv-x="1341" 
d="M1260 248q0 -61 -20 -109.5t-55 -82.5t-84.5 -52t-107.5 -18q-169 0 -264 125v-111h-88v549q0 97 -70 151q-65 50 -165 50q-163 0 -236 -111v-561h143v-78h-231v664q115 170 324 170q134 0 225 -68q98 -77 98 -203v-278q0 -84 76 -154t172 -70q43 0 79 13t61.5 38
t39.5 61.5t14 82.5v563h89v-571v0z" />
    <glyph glyph-name="uni0E0D" unicode="&#xe0d;" horiz-adv-x="1341" 
d="M1260 260q0 -122 -95 -199q-90 -75 -227 -75q-197 0 -301 131l68 57q73 -108 231 -108q49 0 92 13.5t74.5 38.5t50 61t18.5 81q-51 -48 -110 -71t-125 -23q-130 0 -209 67q-43 36 -64.5 82.5t-21.5 106.5v127q0 97 -70 151q-65 50 -165 50q-163 0 -236 -111v-561h143v-78
h-231v664q115 170 324 170q134 0 225 -68q98 -77 98 -203v-139q0 -90 64 -135q55 -45 149 -45q46 0 87.5 14.5t73 40.5t50 62t18.5 79v379h89v-559v0z" />
    <glyph glyph-name="uni0E0E" unicode="&#xe0e;" horiz-adv-x="821" 
d="M659 -307l-174 133l-178 -133h-303v86h285l198 149l164 -129v750q0 48 -17 86t-52 65q-65 50 -166 50q-163 0 -236 -111v-639h-176v78h88v586q115 170 324 170q136 0 225 -68q98 -76 98 -203v-870h-80z" />
    <glyph glyph-name="uni0E0F" unicode="&#xe0f;" horiz-adv-x="821" 
d="M657 -307l-112 112l-111 -131l-110 131l-115 -112h-205v86h178l144 137l108 -125l111 125l106 -100v733q0 48 -17 86t-52 65q-65 50 -166 50q-163 0 -236 -111v-639h-176v78h88v586q115 170 324 170q136 0 225 -68q98 -76 98 -203v-870h-82z" />
    <glyph glyph-name="uni0E10" unicode="&#xe10;" horiz-adv-x="782" 
d="M733 422q0 -195 -131 -320t-342 -110l-100 434h-80v78h156l94 -428q139 3 227 100q88 101 88 246q0 70 -21.5 129t-60 101t-92.5 65.5t-119 23.5q-77 0 -146 -30t-132 -90l-70 57q145 151 352 151q108 0 185 -43l80 95l65 -52l-76 -92q123 -113 123 -315zM655 -299
l-114 113l-109 -131l-108 131l-115 -113h-199v86h174l142 137l106 -125l109 125l106 -100v80l-41 67h129v-270h-80z" />
    <glyph glyph-name="uni0E11" unicode="&#xe11;" horiz-adv-x="821" 
d="M651 0v598q0 27 -7.5 51t-20.5 43t-30 31t-36 14l-379 -737h-82v498q0 51 62 98q63 45 63 78v35l-82 -62q-22 36 -129 121l60 61q26 -21 46 -39.5t34 -33.5l81 63h78v-160q0 -37 -63 -81q-62 -47 -62 -93v-297l330 635q52 0 93.5 -17t71 -47t45 -71.5t15.5 -91.5v-596
h-88z" />
    <glyph glyph-name="uni0E12" unicode="&#xe12;" horiz-adv-x="1399" 
d="M1317 248q0 -61 -20 -109.5t-55 -82.5t-84 -52t-107 -18q-170 0 -265 125v-111h-88v567q0 31 -8.5 60.5t-23.5 53.5t-35.5 40.5t-44.5 21.5l-133 -157l-140 155q-29 -14 -56.5 -43.5t-53.5 -74.5q-64 -107 -64 -228q0 -131 49 -221q56 -98 160 -98q73 0 121 69l74 -53
q-35 -51 -83.5 -76.5t-111.5 -25.5q-72 0 -128.5 27.5t-94.5 84.5q-76 107 -76 293q0 162 92 295q86 124 201 144l111 -123l100 116q54 0 97.5 -20t73.5 -54.5t46 -82.5t16 -103v-282q0 -84 76 -154t172 -70q43 0 79 13t61.5 38t40 61.5t14.5 82.5v563h88v-571v0z" />
    <glyph glyph-name="uni0E13" unicode="&#xe13;" horiz-adv-x="1341" 
d="M1171 0v111q-94 -125 -264 -125q-59 0 -108 17.5t-84 51t-54.5 82.5t-19.5 111v301q0 97 -70 151q-65 50 -165 50q-163 0 -236 -111v-561h143v-78h-231v664q115 170 324 170q134 0 225 -68q98 -77 98 -203v-307q0 -47 14.5 -83.5t40 -61t61.5 -37.5t79 -13q93 0 172 68
q75 66 75 156v534h89v-819h-89z" />
    <glyph glyph-name="uni0E14" unicode="&#xe14;" horiz-adv-x="821" 
d="M651 0v541q0 43 -16.5 81t-46.5 66t-71 44t-89 16q-126 0 -209 -109q-79 -107 -82 -252q-2 -66 10.5 -120.5t36.5 -96.5q26 -48 65.5 -71t90.5 -23q67 0 117 65l67 -49q-69 -102 -184 -102q-143 0 -219 112q-37 53 -55.5 123.5t-16.5 161.5q3 183 109 313
q108 134 270 134q133 0 223 -84q88 -82 88 -207v-543h-88z" />
    <glyph glyph-name="uni0E15" unicode="&#xe15;" horiz-adv-x="856" 
d="M686 0v567q0 31 -8 60.5t-22.5 53.5t-35 40.5t-45.5 21.5l-131 -157l-135 155q-29 -14 -56.5 -43.5t-53.5 -74.5q-59 -109 -62 -228q-2 -69 10.5 -124.5t36.5 -98.5q56 -96 158 -96q71 0 117 69l71 -53q-35 -51 -81.5 -76.5t-106.5 -25.5q-71 0 -126 28.5t-92.5 81
t-56.5 127.5t-18 168q3 165 90 295q86 124 197 144l108 -123l101 116q53 0 95.5 -20t72 -54.5t45.5 -82.5t16 -103v-567h-88z" />
    <glyph glyph-name="uni0E16" unicode="&#xe16;" horiz-adv-x="811" 
d="M641 0v549q0 97 -70 151q-65 50 -165 50q-163 0 -236 -111v-561h139v-78h-227v664q115 170 324 170q134 0 225 -68q98 -77 98 -203v-563h-88z" />
    <glyph glyph-name="uni0E17" unicode="&#xe17;" horiz-adv-x="811" 
d="M641 0v553q0 101 -61 156q-29 24 -66 36.5t-84 12.5q-103 0 -182 -70q-78 -72 -78 -153v-535h-88v819h88v-110q94 125 276 125q64 0 116 -19t89 -54t57.5 -85.5t20.5 -114.5v-561h-88z" />
    <glyph glyph-name="uni0E18" unicode="&#xe18;" horiz-adv-x="743" 
d="M602 594q-58 149 -252 149q-40 0 -76 -9t-63.5 -24t-44 -34.5t-16.5 -40.5q0 -47 79 -72q24 -9 156 -31q156 -26 232.5 -96t76.5 -182q0 -130 -108 -201q-100 -65 -252 -65q-63 0 -128.5 10.5t-133.5 32.5v399l86 29v-359q37 -14 81 -20t95 -6q108 0 184 43q86 50 86 137
q0 153 -235 192q-79 14 -132.5 27t-82.5 27q-99 42 -99 127q0 87 97 149q88 55 206 55q273 0 338 -237h-94z" />
    <glyph glyph-name="uni0E19" unicode="&#xe19;" horiz-adv-x="811" 
d="M641 0v111q-94 -125 -276 -125q-64 0 -116 18.5t-89 53.5t-57.5 85.5t-20.5 114.5v561h88v-553q0 -50 15.5 -88t43.5 -64t67 -39.5t85 -13.5q104 0 180 70q80 71 80 154v534h88v-819h-88z" />
    <glyph glyph-name="uni0E1A" unicode="&#xe1a;" horiz-adv-x="811" 
d="M729 260q0 -120 -96 -199q-94 -75 -227 -75q-135 0 -226 75q-98 78 -98 199v559h88v-559q0 -42 18.5 -77t50.5 -60t75 -39t92 -14q48 0 91 14t75 39t50.5 60t18.5 77v559h88v-559v0z" />
    <glyph glyph-name="uni0E1B" unicode="&#xe1b;" horiz-adv-x="811" 
d="M729 260q0 -120 -96 -199q-94 -75 -227 -75q-135 0 -226 75q-98 78 -98 199v559h88v-559q0 -42 18.5 -77t50.5 -60t75 -39t92 -14q48 0 91 14t75 39t50.5 60t18.5 77v755h88v-755v0z" />
    <glyph glyph-name="uni0E1C" unicode="&#xe1c;" horiz-adv-x="1020" 
d="M797 0h-76l-213 659l-209 -659h-74l-217 819h230v-86h-117l145 -567l205 653h74l209 -653l168 653h88z" />
    <glyph glyph-name="uni0E1D" unicode="&#xe1d;" horiz-adv-x="1020" 
d="M799 0h-76l-215 664l-209 -664h-74l-217 819h230v-86h-117l147 -565l203 651h76l207 -651l218 847h88z" />
    <glyph glyph-name="uni0E1E" unicode="&#xe1e;" horiz-adv-x="1020" 
d="M797 0h-76l-213 659l-209 -659h-74l-217 819h88l170 -653l205 653h74l209 -653l168 653h88z" />
    <glyph glyph-name="uni0E1F" unicode="&#xe1f;" horiz-adv-x="1020" 
d="M799 0h-76l-215 664l-209 -664h-74l-217 819h88l172 -651l203 651h76l207 -651l218 847h88z" />
    <glyph glyph-name="uni0E20" unicode="&#xe20;" horiz-adv-x="821" 
d="M651 0v549q0 48 -17 86t-52 65q-65 50 -166 50q-163 0 -236 -111v-639h-176v78h88v586q115 170 324 170q136 0 225 -68q98 -76 98 -203v-563h-88z" />
    <glyph glyph-name="uni0E21" unicode="&#xe21;" horiz-adv-x="811" 
d="M729 258q0 -64 -20.5 -114.5t-57.5 -85.5t-89 -53.5t-116 -18.5q-182 0 -276 125v-111h-88v819h88v-534q0 -82 78 -154q79 -70 182 -70q46 0 85 13.5t67 39.5t43.5 64t15.5 88v553h88v-561v0z" />
    <glyph glyph-name="uni0E22" unicode="&#xe22;" horiz-adv-x="809" 
d="M727 119q-113 -131 -319 -131q-171 0 -269 80q-90 75 -90 190q0 144 141 221q-120 38 -120 160q0 41 18.5 75.5t50.5 60t75 40t93 14.5q66 0 113 -18v-88q-53 18 -111 18q-32 0 -59 -6.5t-47 -19.5t-31.5 -32t-11.5 -44q0 -54 55 -84q52 -25 117 -25h88v-88h-70
q-80 0 -141 -49q-68 -53 -68 -133q0 -42 19.5 -77t54.5 -59.5t84.5 -38t108.5 -13.5q71 0 128.5 19.5t102.5 60.5v667h88v-700v0z" />
    <glyph glyph-name="uni0E23" unicode="&#xe23;" horiz-adv-x="756" 
d="M707 256q0 -127 -101 -203q-90 -69 -227 -69t-229 71q-101 76 -101 213h88q0 -96 76 -151q65 -47 166 -47q96 0 164 47q75 51 75 139q0 125 -231 154q-146 18 -215 49q-102 45 -102 139q0 101 88 164q88 67 209 67q124 0 213 -55q48 -32 77.5 -76.5t40.5 -103.5h-90
q-50 151 -241 151q-80 0 -140 -38q-67 -43 -67 -101q0 -54 82 -82q18 -6 57.5 -13t101.5 -15q306 -44 306 -240z" />
    <glyph glyph-name="uni0E24" unicode="&#xe24;" horiz-adv-x="811" 
d="M641 -307v854q0 48 -17.5 86t-48.5 64t-74.5 39.5t-94.5 13.5q-163 0 -236 -113v-559h139v-78h-227v662q115 172 324 172q136 0 225 -70q98 -77 98 -205v-866h-88z" />
    <glyph glyph-name="uni0E25" unicode="&#xe25;" horiz-adv-x="829" 
d="M659 0v332q-15 33 -42 60t-61.5 46.5t-75.5 30t-85 10.5q-59 0 -106.5 -17.5t-81.5 -48.5t-52 -73.5t-18 -91.5q0 -34 11.5 -64.5t31 -54t46.5 -37.5t59 -14q29 0 55 8t51 25l53 -70q-37 -26 -76.5 -38.5t-82.5 -12.5q-104 0 -170 76q-66 78 -66 182q0 129 90 219
q100 98 256 98q82 0 147.5 -23t116.5 -71v88q0 42 -18 76.5t-55 60.5q-35 26 -77.5 40t-90.5 14q-40 0 -78 -11.5t-70 -32t-56.5 -49.5t-37.5 -63h-92q15 54 48.5 98.5t78.5 76t99.5 48.5t113.5 17q131 0 227 -78q97 -77 97 -197v-559h-89z" />
    <glyph glyph-name="uni0E26" unicode="&#xe26;" horiz-adv-x="821" 
d="M651 -307v856q0 48 -17 86t-52 65q-65 50 -166 50q-163 0 -236 -111v-639h-176v78h88v586q115 170 324 170q136 0 225 -68q98 -76 98 -203v-870h-88z" />
    <glyph glyph-name="uni0E27" unicode="&#xe27;" horiz-adv-x="752" 
d="M702 410q0 -90 -21.5 -163.5t-66.5 -133.5q-95 -127 -256 -127q-53 0 -102.5 17.5t-91.5 50t-73 78t-46 101.5h90q64 -161 223 -161q123 0 193 104q63 94 63 234q0 69 -15.5 127t-47.5 106q-71 105 -193 105q-35 0 -68.5 -11.5t-63 -32.5t-53 -51t-36.5 -67h-92
q15 56 46 101.5t73 78t91.5 50.5t102.5 18q161 0 256 -127q45 -60 66.5 -134t21.5 -163z" />
    <glyph glyph-name="uni0E28" unicode="&#xe28;" horiz-adv-x="811" 
d="M641 0v561q0 42 -19.5 77t-51.5 60t-75 38.5t-89 13.5q-47 0 -89.5 -13.5t-75 -38.5t-52 -60t-19.5 -77v-104h252v-86h-252v-371h-88v555q0 118 96 197q97 77 228 77q79 0 147 -30l70 82l71 -52l-63 -73q49 -42 73.5 -91.5t24.5 -109.5v-555h-88z" />
    <glyph glyph-name="uni0E29" unicode="&#xe29;" horiz-adv-x="821" 
d="M733 389v-129q0 -119 -98 -197q-97 -77 -227 -77q-137 0 -228 75q-98 78 -98 199v559h88v-563q0 -43 18 -77.5t49.5 -58.5t75 -37t95.5 -13q49 0 92 13t74.5 37.5t50 59t18.5 76.5v133h-231v129l65 -41h166v342h90v-342h80v-88h-80z" />
    <glyph glyph-name="uni0E2A" unicode="&#xe2a;" horiz-adv-x="829" 
d="M659 0v330q-15 33 -42 60t-61.5 46.5t-75.5 30t-85 10.5q-59 0 -106.5 -17.5t-81.5 -48.5t-52 -73.5t-18 -91.5q0 -34 11.5 -64.5t31 -54t46.5 -37.5t59 -14q53 0 106 35l53 -70q-37 -26 -76.5 -38.5t-82.5 -12.5q-104 0 -170 76q-32 38 -49 82.5t-17 97.5q0 129 90 219
q100 98 256 98q164 0 264 -94v90q0 42 -18 76.5t-55 60.5q-35 26 -77.5 40t-90.5 14q-40 0 -78 -11.5t-70 -32t-56.5 -48.5t-37.5 -62h-92q15 54 48.5 98t78.5 75t99.5 48t113.5 17q77 0 147 -31l72 82l70 -51l-64 -74q99 -83 99 -201v-559h-89z" />
    <glyph glyph-name="uni0E2B" unicode="&#xe2b;" horiz-adv-x="821" 
d="M662 0v401q0 86 -78 136q-76 50 -174 41l-240 -148v-430h-88v819h88v-291l483 301l74 -51l-201 -131q50 -9 91 -30t70.5 -52.5t46 -72.5t16.5 -89v-403h-88z" />
    <glyph glyph-name="uni0E2C" unicode="&#xe2c;" horiz-adv-x="1020" 
d="M1034 889q-27 -100 -123 -127q47 -47 47 -107q0 -14 -1.5 -28t-6.5 -31l-153 -596h-76l-213 664l-209 -664h-74l-217 819h88l170 -651l205 651h74l209 -651l112 432q6 21 6 39q0 102 -114 102h-86v78h94q158 0 182 90l17 60h92z" />
    <glyph glyph-name="uni0E2D" unicode="&#xe2d;" horiz-adv-x="885" 
d="M836 410q0 -185 -109 -306q-108 -118 -285 -118q-88 0 -159 29t-125 89q-109 121 -109 306q0 11 1.5 32t6.5 52h285v-86h-205q3 -145 86 -240q44 -48 98.5 -71t120.5 -23q68 0 124 25t96.5 69.5t63 106t22.5 135.5q0 73 -22 135t-62.5 107t-96.5 70.5t-125 25.5
q-198 0 -280 -193h-90q45 140 137.5 209.5t232.5 69.5q178 0 285 -119q54 -60 81.5 -135.5t27.5 -169.5z" />
    <glyph glyph-name="uni0E2E" unicode="&#xe2e;" horiz-adv-x="885" 
d="M836 410q0 -185 -109 -306q-108 -118 -285 -118q-88 0 -159 29t-125 89q-109 121 -109 306q0 11 1.5 32t6.5 52h285v-86h-205q3 -145 86 -240q44 -48 98.5 -71t120.5 -23q68 0 124 25t96.5 69.5t63 106t22.5 135.5q0 73 -22 135t-62.5 107t-96.5 70.5t-125 25.5
q-198 0 -280 -193h-90q45 140 137.5 209.5t232.5 69.5q47 0 88.5 -9t79.5 -26l70 82l65 -47l-65 -78q156 -117 156 -346z" />
    <glyph glyph-name="uni0E2F" unicode="&#xe2f;" horiz-adv-x="803" 
d="M633 0v559q-114 -108 -316 -108q-62 0 -111.5 15t-84.5 41t-53.5 61t-18.5 75t18 74t50 59t75 39t93 14q58 0 114 -18v-88q-32 11 -60.5 15.5t-51.5 4.5q-32 0 -59 -6.5t-47.5 -19.5t-32 -31.5t-11.5 -42.5q0 -26 14.5 -46.5t39 -34.5t57.5 -22t71 -8q217 0 314 146v141
h88v-819h-88z" />
    <glyph glyph-name="uni0E30" unicode="&#xe30;" horiz-adv-x="313" 
d="M51 575v142h88v-55h133v-87h-221zM51 102v142h88v-56h133v-86h-221z" />
    <glyph glyph-name="uni0E31" unicode="&#xe31;" 
d="M-383 922v163h86v-81h477v-82h-563z" />
    <glyph glyph-name="uni0E32" unicode="&#xe32;" horiz-adv-x="565" 
d="M399 0v528q0 226 -202 226q-42 0 -84 -15.5t-84 -44.5v92q42 23 83.5 35.5t86.5 12.5q140 0 217 -86q35 -39 52 -90.5t17 -114.5v-543h-86z" />
    <glyph glyph-name="uni0E33" unicode="&#xe33;" horiz-adv-x="565" 
d="M-27 1016q0 -19 -8 -37t-21.5 -31.5t-31.5 -21.5t-39 -8t-39 8t-31.5 21.5t-21.5 31.5t-8 37q0 42 29 71t71 29q19 0 37 -8t32 -21.5t22.5 -31.5t8.5 -39zM399 0v528q0 226 -202 226q-42 0 -84 -15.5t-84 -44.5v92q42 23 83.5 35.5t86.5 12.5q140 0 217 -86
q35 -39 52 -90.5t17 -114.5v-543h-86zM-84 1016q0 43 -43 43t-43 -43t43 -43t43 43z" />
    <glyph glyph-name="uni0E34" unicode="&#xe34;" 
d="M-717 922v82h635v-82h-635z" />
    <glyph glyph-name="uni0E35" unicode="&#xe35;" 
d="M-717 922v82h547v102h88v-184h-635z" />
    <glyph glyph-name="uni0E36" unicode="&#xe36;" 
d="M-29 1018q0 -19 -7.5 -36.5t-21 -30.5t-31 -21t-38.5 -8h-590v82h494q-2 5 -2 8v6q0 42 28 70t70 28q19 0 37 -7.5t31.5 -21t21.5 -31t8 -38.5zM-92 1022q0 37 -37 37t-37 -37t37 -37t37 37z" />
    <glyph glyph-name="uni0E37" unicode="&#xe37;" 
d="M-717 922v82h398v102h88v-102h61v102h88v-184h-635z" />
    <glyph glyph-name="uni0E38" unicode="&#xe38;" 
d="M-170 -317v153h-82v82h170v-235h-88z" />
    <glyph glyph-name="uni0E39" unicode="&#xe39;" 
d="M-82 -193q0 -28 -13.5 -52.5t-36 -43t-52 -29t-62.5 -10.5q-101 0 -153 72v92h-64v82h152v-145q20 -27 69 -27q72 0 72 59v113h88v-111v0z" />
    <glyph glyph-name="uni0E3A" unicode="&#xe3a;" 
d="M-61 -147q0 -66 -66 -66t-66 66q0 65 66 65t66 -65z" />
    <glyph glyph-name="uni0E3F" unicode="&#xe3f;" horiz-adv-x="901" 
d="M852 274q0 -274 -346 -274h-33v-135h-51v135h-324v965h324v127h51v-127h33q309 0 309 -236q0 -39 -12.5 -74.5t-35 -64.5t-53 -49t-67.5 -29v-2q47 -6 85 -26t64.5 -51t41 -71.5t14.5 -87.5zM723 707q0 180 -217 180h-33v-344h33q106 0 161.5 44.5t55.5 119.5zM422 887
h-234v-344h234v344zM760 276q0 187 -254 187h-33v-385h33q254 0 254 198zM422 463h-234v-385h234v385z" />
    <glyph glyph-name="uni0E40" unicode="&#xe40;" horiz-adv-x="291" 
d="M102 0v819h86v-819h-86z" />
    <glyph glyph-name="uni0E41" unicode="&#xe41;" horiz-adv-x="506" 
d="M317 0v819h86v-819h-86zM102 0v819h86v-819h-86z" />
    <glyph glyph-name="uni0E42" unicode="&#xe42;" horiz-adv-x="332" 
d="M121 1186q-60 0 -60 -37q0 -27 39 -51l46.5 -33t23.5 -21q20 -20 29.5 -47t9.5 -59v-938h-86v940q0 59 -74 109q-72 52 -72 100q0 28 12 50t33 38t49.5 24.5t61.5 8.5h254v-84h-266z" />
    <glyph glyph-name="uni0E43" unicode="&#xe43;" horiz-adv-x="332" 
d="M307 1114q0 -54 -49 -102q-49 -49 -49 -101v-911h-86v922q0 62 49 108t49 80q0 38 -30.5 65t-77.5 27q-54 0 -86.5 -32t-32.5 -83h-84q0 41 15.5 76t43 61t64.5 41t80 15q42 0 77.5 -13t61.5 -35.5t40.5 -53t14.5 -64.5z" />
    <glyph glyph-name="uni0E44" unicode="&#xe44;" horiz-adv-x="332" 
d="M315 1120q-106 -88 -106 -184v-936h-86v924q0 96 96 186l-43 43l-100 -94l-182 158l53 57l133 -115l108 98l127 -137v0z" />
    <glyph glyph-name="uni0E45" unicode="&#xe45;" horiz-adv-x="565" 
d="M399 -307v835q0 226 -202 226q-42 0 -84 -15.5t-84 -44.5v92q42 23 83.5 35.5t86.5 12.5q140 0 217 -86q35 -39 52 -90.5t17 -114.5v-850h-86z" />
    <glyph glyph-name="uni0E46" unicode="&#xe46;" horiz-adv-x="809" 
d="M639 -307v893q0 136 -117 162l-133 -142l-135 142q-117 -26 -117 -162v-43h166v-86h-254v129q0 55 17 100t48.5 76.5t75.5 49t99 17.5l100 -104l100 104q55 0 99 -17.5t75 -49t47.5 -76.5t16.5 -100v-893h-88z" />
    <glyph glyph-name="uni0E47" unicode="&#xe47;" 
d="M-451 1090q-114 0 -114 -93v2h78l116 70l111 -70h129v-77h-143l-97 63l-100 -63h-178v67q0 38 12.5 70t38 55.5t64 37t90.5 13.5h381v-75h-388z" />
    <glyph glyph-name="uni0E48" unicode="&#xe48;" 
d="M-170 1167v144h88v-144h-88z" />
    <glyph glyph-name="uni0E49" unicode="&#xe49;" 
d="M-258 1167v43q0 31 -27 31h-28v74h41q88 0 88 -70v-4h237v-74h-311z" />
    <glyph glyph-name="uni0E4A" unicode="&#xe4a;" 
d="M6 1167v62q0 53 -51 53l-96 -70l-95 70h-2q-53 0 -53 -53v2h74v-64h-145v74q0 25 10 46.5t27.5 36.5t41.5 23.5t52 8.5h8l82 -60l78 60h14q57 0 93 -30.5t36 -84.5h121v-74h-195z" />
    <glyph glyph-name="uni0E4B" unicode="&#xe4b;" 
d="M-88 1255v-88h-74v88h-92v62h92v88h74v-88h92v-62h-92z" />
    <glyph glyph-name="uni0E4C" unicode="&#xe4c;" 
d="M-94 1155q-49 0 -49 -35v-35h-80v43q0 97 102 97h94v-70h-67z" />
    <glyph glyph-name="uni0E4D" unicode="&#xe4d;" 
d="M-27 1016q0 -19 -8 -37t-21.5 -31.5t-31.5 -21.5t-39 -8t-39 8t-31.5 21.5t-21.5 31.5t-8 37q0 42 29 71t71 29q19 0 37 -8t32 -21.5t22.5 -31.5t8.5 -39zM-84 1016q0 43 -43 43t-43 -43t43 -43t43 43z" />
    <glyph glyph-name="uni0E4E" unicode="&#xe4e;" 
d="M-29 1339q-20 2 -38.5 3t-36.5 1q-95 0 -156 -24q-68 -29 -68 -76q0 -60 121 -57v-64q-93 3 -166 -22q-86 -29 -86 -80q0 -39 62 -39q60 0 116 31l31 -54q-74 -36 -147 -36q-138 0 -138 94q0 28 14 52t38 43t56.5 32.5t68.5 19.5q-48 26 -48 82q0 70 93 117q89 47 223 47
h30.5t30.5 -2v-68v0z" />
    <glyph glyph-name="uni0E4F" unicode="&#xe4f;" horiz-adv-x="983" 
d="M911 410q0 -174 -123 -297q-122 -123 -296 -123q-176 0 -297 123q-123 123 -123 297t123 297q122 122 297 122q174 0 296 -122q123 -123 123 -297zM850 410q0 148 -107 252q-103 106 -251 106t-254 -106q-105 -105 -105 -252q0 -148 105 -254q106 -105 254 -105
q147 0 251 105q107 106 107 254zM748 410q0 -106 -76 -183q-73 -73 -180 -73t-183 73q-73 77 -73 183q0 107 73 180q76 76 183 76t180 -76q76 -73 76 -180z" />
    <glyph glyph-name="uni0E50" unicode="&#xe50;" horiz-adv-x="752" 
d="M702 307q0 -131 -96 -225q-48 -48 -105.5 -71t-123.5 -23q-68 0 -126 23t-106 71t-72 103.5t-24 121.5t24 121.5t72 103.5q95 95 232 95q66 0 123.5 -23.5t105.5 -71.5q96 -95 96 -225zM616 307q0 97 -71 168q-70 70 -172 70t-172 -70t-70 -168t70 -168q69 -69 172 -69
t172 69q71 71 71 168z" />
    <glyph glyph-name="uni0E51" unicode="&#xe51;" horiz-adv-x="801" 
d="M752 313q0 -154 -131 -270q-60 -54 -127.5 -85t-143.5 -42l-37 70q140 18 244 108q111 96 111 219q0 52 -21 95.5t-58 75t-86.5 48.5t-107.5 17q-108 0 -184 -64q-78 -63 -78 -157q0 -34 12 -64.5t34 -53.5t52.5 -36.5t67.5 -13.5h6t8 2q-65 33 -65 112q0 28 11 53.5
t30.5 45t45.5 30.5t56 11t56 -11t44.5 -30.5t29.5 -45t11 -53.5q0 -41 -19 -76.5t-51.5 -62t-76 -42t-92.5 -15.5q-53 0 -97.5 19.5t-77 53t-51 79t-18.5 98.5q0 131 107 217q100 82 237 82q153 0 254 -86q105 -87 105 -228zM459 274q0 68 -68 68q-69 0 -69 -68
q0 -63 69 -63q68 0 68 63z" />
    <glyph glyph-name="uni0E52" unicode="&#xe52;" horiz-adv-x="1126" 
d="M162 0q-11 153 -32.5 275.5t-53.5 218.5q-64 193 -207 327l63 56q158 -149 226 -355q29 -91 50 -200.5t32 -237.5h718v350q0 51 -32 81t-80 30q-76 0 -117 -66v-329h-86v331q-46 64 -129 64q-30 0 -56.5 -9.5t-46 -26.5t-31 -41t-11.5 -52v-6q12 5 27 6.5t32 1.5
q31 0 57.5 -11t46 -30t30.5 -44.5t11 -53.5q0 -30 -11 -56t-30.5 -45t-46 -30t-57.5 -11q-30 0 -56 11t-45.5 30t-30.5 45t-11 56v137q0 46 18 85t49.5 67.5t73 44.5t88.5 16q100 0 170 -70q73 70 162 70q40 0 76 -13.5t63 -38t43 -58.5t16 -75v-444h-882zM500 279
q0 13 -6 24.5t-15.5 20.5t-22.5 14.5t-28 5.5q-70 0 -70 -65q0 -66 70 -66q72 0 72 66z" />
    <glyph glyph-name="uni0E53" unicode="&#xe53;" horiz-adv-x="958" 
d="M793 0v430q0 27 -10 48t-26.5 35.5t-39 22t-47.5 7.5q-85 0 -127 -68v-475h-86v477q-23 32 -57 49t-81 17q-30 0 -57.5 -10t-48.5 -27t-34 -41t-13 -51v-154q12 5 26 6.5t31 1.5q31 0 57.5 -11t46 -29.5t31 -44.5t11.5 -56q0 -29 -11.5 -53.5t-31 -43.5t-46 -29.5
t-57.5 -10.5q-30 0 -56 10.5t-44.5 29.5t-29.5 43.5t-11 53.5v287q0 90 72 149q74 62 165 62q112 0 183 -68q65 68 168 68q40 0 77.5 -13.5t66.5 -38t46 -58.5t17 -75v-440h-84zM295 127q0 29 -21.5 49.5t-50.5 20.5t-48 -20.5t-19 -49.5q0 -13 5.5 -25.5t15 -22t21.5 -15
t25 -5.5q29 0 50.5 21t21.5 47z" />
    <glyph glyph-name="uni0E54" unicode="&#xe54;" horiz-adv-x="864" 
d="M856 860q3 -134 -37 -219q-50 -102 -149 -102h-279q-108 0 -184 -70q-77 -68 -74 -176q3 -105 76 -166q67 -55 164 -55q45 0 92 12l70 16q-91 65 -91 160q0 30 12 56.5t32 46.5t47 31.5t57 11.5t56 -11t45.5 -30.5t30.5 -45t11 -53.5q0 -106 -104 -135q8 -5 27 -10
t51 -10q48 -8 82.5 -21t56.5 -33l-49 -67q-37 20 -78.5 30.5t-87.5 10.5q-37 0 -117 -19q-80 -18 -149 -18q-130 0 -217 74q-98 79 -101 225q-3 138 98 233q103 97 244 97h279q99 0 102 237h84zM662 266q0 26 -20.5 46t-49.5 20q-70 0 -70 -66q0 -65 70 -65t70 65z" />
    <glyph glyph-name="uni0E55" unicode="&#xe55;" horiz-adv-x="864" 
d="M856 860q3 -134 -37 -219q-50 -102 -149 -102h-279q-108 0 -184 -70q-77 -68 -74 -176q3 -105 76 -166q67 -55 164 -55q45 0 92 12l70 16q-91 62 -91 160q0 30 12 56.5t32 46.5t47 31.5t57 11.5t56 -11t45.5 -30.5t30.5 -45t11 -53.5q0 -103 -100 -137q9 -9 74 -18
q48 -8 82.5 -21t56.5 -33l-49 -67q-37 20 -78.5 30.5t-87.5 10.5q-37 0 -117 -19q-80 -18 -149 -18q-130 0 -217 74q-98 81 -101 225q-1 59 18 111.5t52.5 94.5t80.5 71t103 42q-18 28 -18 72q0 31 11.5 57.5t32 46.5t47.5 31.5t58 11.5t59 -11t49 -31t33.5 -47t12.5 -58
q0 -22 -17 -59h47q17 -2 29.5 -2h22.5q99 0 102 237h84zM508 684q0 74 -74 74q-31 0 -52.5 -21.5t-21.5 -52.5q0 -29 22.5 -49.5t51.5 -20.5q31 0 52.5 20.5t21.5 49.5zM662 266q0 26 -20.5 46t-49.5 20q-70 0 -70 -66q0 -65 70 -65t70 65z" />
    <glyph glyph-name="uni0E56" unicode="&#xe56;" horiz-adv-x="811" 
d="M760 313q0 -141 -105 -235q-102 -92 -254 -92q-69 0 -126.5 18t-102.5 55q-90 76 -90 172q0 31 11 57t29.5 45.5t44.5 30.5t56 11t56 -11t45.5 -30t31 -45t11.5 -56q0 -100 -97 -135q46 -30 131 -30q57 0 106 17t89 52q80 71 80 176q0 100 -78 166q-77 68 -182 68
q-138 0 -244 -103l-74 21q-17 97 -61 178t-115 148l66 51q142 -122 186 -295q54 42 115 62t127 20q72 0 132 -22.5t111 -67.5q101 -89 101 -226zM293 233q0 68 -70 68q-67 0 -67 -68q0 -13 5.5 -25t15 -21.5t21.5 -15t25 -5.5q29 0 49.5 19t20.5 48z" />
    <glyph glyph-name="uni0E57" unicode="&#xe57;" horiz-adv-x="1155" 
d="M1163 795q-94 -61 -94 -174v-431q0 -49 -20 -87t-56 -63.5t-87 -37.5t-113 -10v442q0 27 -10 47.5t-26.5 35t-38.5 21.5t-46 7q-87 0 -129 -68v-477h-86v479q-23 32 -57 49t-81 17q-30 0 -57.5 -10t-48.5 -27t-34 -41t-13 -51v-158q23 10 57 10q31 0 57.5 -11t46 -29.5
t31 -44.5t11.5 -56q0 -29 -11.5 -53.5t-31 -43.5t-46 -29.5t-57.5 -10.5q-30 0 -56 10.5t-44.5 29.5t-29.5 43.5t-11 53.5v289q0 90 72 149q74 62 165 62q112 0 183 -68q32 34 74 51t96 17q40 0 77 -13.5t65.5 -38t45.5 -58t17 -73.5v-370q104 12 104 108v447q0 132 113 215
zM295 127q0 70 -72 70q-67 0 -67 -70q0 -13 5.5 -25.5t15 -22t21.5 -15t25 -5.5q29 0 50.5 21t21.5 47z" />
    <glyph glyph-name="uni0E58" unicode="&#xe58;" horiz-adv-x="891" 
d="M850 836q-15 -177 -129 -330q-66 20 -130.5 30.5t-127.5 10.5q-134 0 -234 -68q-96 -69 -96 -170q0 -40 13 -75.5t34 -64.5t49 -50t58 -31l143 170l178 -168q27 11 56 39q-84 31 -84 121q0 25 10.5 47.5t28.5 40t42 27.5t52 10q25 0 48 -10.5t40.5 -28.5t28 -41.5
t10.5 -48.5q0 -131 -250 -258l-156 149l-121 -147q-60 15 -106.5 42.5t-81.5 69.5q-76 86 -76 207q0 139 119 228q121 92 297 92q125 0 221 -25q68 109 80 238zM764 250q0 51 -51 51q-54 0 -54 -51q0 -53 54 -53q51 0 51 53z" />
    <glyph glyph-name="uni0E59" unicode="&#xe59;" horiz-adv-x="956" 
d="M977 848q2 -20 3 -39t1 -39q0 -196 -121 -311q-24 92 -96 92q-18 0 -33.5 -8.5t-28 -22.5t-20.5 -32t-10 -37q59 -88 95 -199t50 -248l-86 -10q-68 557 -360 557q-52 0 -95 -18t-74.5 -49.5t-49 -75t-17.5 -95.5q0 -44 11 -82.5t30.5 -69.5t46 -52.5t56.5 -30.5
q-25 26 -25 80q0 30 12 56t32 45.5t46.5 30.5t56.5 11t56 -11t45.5 -30.5t31 -45.5t11.5 -56q0 -37 -16.5 -68.5t-44.5 -54t-65 -35t-77 -12.5q-69 0 -124 24.5t-95 75.5q-37 47 -55.5 103.5t-18.5 125.5q0 136 92 226q48 45 105 67.5t125 22.5q139 0 237 -98q46 94 150 100
q31 2 57 -8t49 -33q23 46 29.5 109t-2.5 145h86zM469 158q0 69 -68 69q-69 0 -69 -69q0 -29 20 -48.5t49 -19.5q68 0 68 68z" />
    <glyph glyph-name="uni0E5A" unicode="&#xe5a;" horiz-adv-x="993" 
d="M823 0v559q-34 -34 -102 -67v-492h-88v559q-114 -108 -316 -108q-62 0 -111.5 15t-84.5 41t-53.5 61t-18.5 75t18 74t50 59t75 39t93 14q58 0 114 -18v-88q-32 11 -60.5 15.5t-51.5 4.5q-32 0 -59 -6.5t-47.5 -19.5t-32 -31.5t-11.5 -42.5q0 -26 14.5 -46.5t39 -34.5
t57.5 -22t71 -8q217 0 314 146v141h88v-233q69 37 102 92v141h88v-819h-88z" />
    <glyph glyph-name="uni0E5B" unicode="&#xe5b;" horiz-adv-x="1401" 
d="M1368 434q0 -21 -45 -24l-111 -11q-24 -59 -43 -59q-7 0 -14.5 8.5t-15.5 22t-16.5 30l-16.5 31.5q-29 -117 -57 -117q-14 0 -39 47q-11 20 -20.5 41.5t-20.5 42.5q-14 -75 -28.5 -113t-31.5 -38q-18 0 -41 59l-43 107q-24 -193 -80 -193q-22 0 -45 78l-30 117
q-9 -124 -88 -240q-102 -147 -256 -147q-59 0 -107.5 25t-83.5 69.5t-54.5 106.5t-19.5 137q0 143 68 241q70 101 174 101q43 0 80.5 -19t65 -52t43.5 -78t16 -97q0 -41 -9 -75t-26 -59t-40.5 -38.5t-51.5 -13.5q-24 0 -44.5 9.5t-36 27t-24 40.5t-8.5 50q0 25 9 48t24 40.5
t35 28t43 10.5q11 0 20.5 -2t18.5 -5q-29 111 -113 111q-34 0 -64 -20t-52.5 -56.5t-36 -87.5t-13.5 -112q0 -59 15 -107t41.5 -82t63 -52t79.5 -18q49 0 93.5 26t80.5 74.5t61.5 117t36.5 153.5q5 37 16.5 55.5t28.5 18.5q56 0 103 -197l20 123q5 28 13.5 41.5t19.5 13.5
q50 0 98 -161q13 123 41 123q43 0 99 -136q27 107 53 107t65 -82q16 48 47 45l111 -14q43 -6 43 -21zM428 451q0 65 -49 65t-49 -65q0 -25 15 -44.5t34 -19.5q49 0 49 64z" />
    <glyph glyph-name="endash" unicode="&#x2013;" horiz-adv-x="741" 
d="M61 303v72h619v-72h-619z" />
    <glyph glyph-name="emdash" unicode="&#x2014;" horiz-adv-x="1483" 
d="M61 303v72h1360v-72h-1360z" />
    <glyph glyph-name="quoteleft" unicode="&#x2018;" horiz-adv-x="293" 
d="M209 907q-15 -6 -27.5 -19.5t-20.5 -31t-12.5 -37.5t-3.5 -39h56v-137h-113v137q0 150 121 185v-58v0z" />
    <glyph glyph-name="quoteright" unicode="&#x2019;" horiz-adv-x="293" 
d="M205 827q0 -149 -121 -184v57q31 14 49 54q8 17 12 35t2 38h-55v138h113v-138v0z" />
    <glyph glyph-name="quotedblleft" unicode="&#x201c;" horiz-adv-x="500" 
d="M416 907q-15 -6 -27.5 -19.5t-20.5 -31t-12.5 -37.5t-3.5 -39h56v-137h-113v137q0 150 121 185v-58zM207 907q-15 -6 -27.5 -19.5t-20.5 -31t-12.5 -37.5t-3.5 -39h56v-137h-113v137q0 150 121 185v-58z" />
    <glyph glyph-name="quotedblright" unicode="&#x201d;" horiz-adv-x="500" 
d="M414 827q0 -149 -121 -184v57q31 14 49 54q8 17 12 35t2 38h-55v138h113v-138zM205 827q0 -149 -121 -184v57q31 14 49 54q8 17 12 35t2 38h-55v138h113v-138z" />
    <glyph glyph-name="bullet" unicode="&#x2022;" horiz-adv-x="758" 
d="M686 410q0 -127 -90 -217q-89 -91 -217 -91t-217 91q-45 45 -67.5 99.5t-22.5 117.5q0 127 90 217t217 90t217 -90q90 -92 90 -217z" />
    <glyph glyph-name="ellipsis" unicode="&#x2026;" horiz-adv-x="1124" 
d="M881 0v137h112v-137h-112zM506 0v137h112v-137h-112zM131 0v137h113v-137h-113z" />
    <glyph glyph-name="thothannobasethai" unicode="&#xf700;" horiz-adv-x="782" 
d="M733 422q0 -195 -131 -320t-342 -110l-100 434h-80v78h156l94 -428q139 3 227 100q88 101 88 246q0 70 -21.5 129t-60 101t-92.5 65.5t-119 23.5q-77 0 -146 -30t-132 -90l-70 57q145 151 352 151q108 0 185 -43l80 95l65 -52l-76 -92q123 -113 123 -315z" />
    <glyph glyph-name="saraileftthai" unicode="&#xf701;" 
d="M-846 922v82h594v-82h-594z" />
    <glyph glyph-name="saraiileftthai" unicode="&#xf702;" 
d="M-846 922v82h506v102h88v-184h-594z" />
    <glyph glyph-name="saraueleftthai" unicode="&#xf703;" 
d="M-197 1018q0 -19 -7.5 -36.5t-21 -30.5t-31 -21t-38.5 -8h-549v82h453q-2 5 -2 8v6q0 42 28 70t70 28q19 0 37 -7.5t31.5 -21t21.5 -31t8 -38.5zM-260 1022q0 37 -37 37t-37 -37t37 -37t37 37z" />
    <glyph glyph-name="saraueeleftthai" unicode="&#xf704;" 
d="M-846 922v82h357v102h88v-102h61v102h88v-184h-594z" />
    <glyph glyph-name="maieklowleftthai" unicode="&#xf705;" 
d="M-375 922v204h88v-204h-88z" />
    <glyph glyph-name="maitholowleftthai" unicode="&#xf706;" 
d="M-342 922v49q0 33 -29 33h-32v81h47q98 0 98 -75v-6h264v-82h-348z" />
    <glyph glyph-name="maitrilowleftthai" unicode="&#xf707;" 
d="M-328 922v69q0 58 -57 58h-2l-98 -68l-101 68q-59 0 -59 -58v2h84v-71h-168v82q0 60 41.5 93t107.5 33h11l84 -59l82 59h12q66 0 106.5 -33t40.5 -93h246v-82h-330z" />
    <glyph glyph-name="maichattawalowleftthai" unicode="&#xf708;" 
d="M-338 1018v-96h-82v96h-102v69h102v97h82v-97h102v-69h-102z" />
    <glyph glyph-name="thanthakhatlowleftthai" unicode="&#xf709;" 
d="M-306 1020q-53 0 -53 -34v-39h-84v45q0 102 108 102h101v-74h-72z" />
    <glyph glyph-name="maieklowrightthai" unicode="&#xf70a;" 
d="M-170 922v204h88v-204h-88z" />
    <glyph glyph-name="maitholowrightthai" unicode="&#xf70b;" 
d="M-295 922v49q0 33 -29 33h-32v81h47q98 0 98 -75v-6h264v-82h-348z" />
    <glyph glyph-name="maitrilowrightthai" unicode="&#xf70c;" 
d="M-223 922v69q0 58 -58 58h-2l-108 -76l-111 76q-59 0 -59 -58v2h84v-71h-168v82q0 60 41.5 93t107.5 33h11l94 -65l92 65h12q66 0 107 -33t41 -93h139v-82h-223z" />
    <glyph glyph-name="maichattawalowrightthai" unicode="&#xf70d;" 
d="M-184 1018v-96h-82v96h-103v69h103v97h82v-97h102v-69h-102z" />
    <glyph glyph-name="thanthakhatlowrightthai" unicode="&#xf70e;" 
d="M-90 995q-53 0 -53 -34v-39h-84v45q0 102 108 102h101v-74h-72z" />
    <glyph glyph-name="yoyingnobasethai" unicode="&#xf70f;" horiz-adv-x="1341" 
d="M1260 260q0 -65 -22 -115.5t-62.5 -86t-97.5 -54t-128 -18.5t-128 18.5t-97 54t-62 86t-22 115.5v289q0 97 -70 151q-65 50 -165 50q-163 0 -236 -111v-561h143v-78h-231v664q115 170 324 170q134 0 225 -68q98 -77 98 -203v-303q0 -44 16 -80.5t45.5 -63t70 -41
t89.5 -14.5t89.5 14.5t70 41t45.5 63t16 80.5v559h89v-559v0z" />
    <glyph glyph-name="maihanakatleftthai" unicode="&#xf710;" 
d="M-541 922v163h86v-81h478v-82h-564z" />
    <glyph glyph-name="nikhahitleftthai" unicode="&#xf711;" 
d="M-217 1016q0 -19 -8 -37t-21.5 -31.5t-31.5 -21.5t-39 -8t-39.5 8t-32 21.5t-21.5 31.5t-8 37q0 21 8 39t21.5 31.5t32 21.5t39.5 8q19 0 37 -8t32 -21.5t22.5 -31.5t8.5 -39zM-274 1016q0 43 -43 43t-43 -43t43 -43t43 43z" />
    <glyph glyph-name="maitaikhuleftthai" unicode="&#xf712;" 
d="M-530 1090q-115 0 -115 -93v2h78l116 70l111 -70h129v-77h-143l-97 63l-100 -63h-178v67q0 38 12.5 70t38 55.5t64 37t90.5 13.5h381v-75h-387z" />
    <glyph glyph-name="maiekupperleftthai" unicode="&#xf713;" 
d="M-340 1167v144h88v-144h-88z" />
    <glyph glyph-name="maithoupperleftthai" unicode="&#xf714;" 
d="M-428 1167v43q0 31 -27 31h-28v74h41q88 0 88 -70v-4h237v-74h-311z" />
    <glyph glyph-name="maitriupperleftthai" unicode="&#xf715;" 
d="M-164 1167v62q0 53 -51 53l-96 -70l-95 70h-2q-53 0 -53 -53v2h74v-64h-145v74q0 25 10 46.5t27.5 36.5t41.5 23.5t52 8.5h8l82 -60l78 60h14q57 0 93 -30.5t36 -84.5h121v-74h-195z" />
    <glyph glyph-name="maichattawaupperleftthai" unicode="&#xf716;" 
d="M-258 1255v-88h-74v88h-92v62h92v88h74v-88h92v-62h-92z" />
    <glyph glyph-name="thanthakhatupperleftthai" unicode="&#xf717;" 
d="M-264 1155q-49 0 -49 -35v-35h-80v43q0 97 102 97h94v-70h-67z" />
    <glyph glyph-name="saraulowthai" unicode="&#xf718;" 
d="M-170 -604v153h-82v82h170v-235h-88z" />
    <glyph glyph-name="sarauulowthai" unicode="&#xf719;" 
d="M-82 -479q0 -29 -13.5 -53.5t-36 -42.5t-52 -28.5t-62.5 -10.5q-102 0 -153 71v92h-64v82h152v-145q21 -27 69 -27q72 0 72 60v112h88v-110v0z" />
    <glyph glyph-name="phinthulowthai" unicode="&#xf71a;" 
d="M-82 -434q0 -66 -65 -66q-66 0 -66 66q0 65 66 65q65 0 65 -65z" />
    <glyph glyph-name="minus" unicode="&#xad;" horiz-adv-x="741" 
d="M61 303v72h619v-72h-619z" />
    <glyph glyph-name="uni0E33_1" horiz-adv-x="565" 
d="M-217 1016q0 -19 -8 -37t-21.5 -31.5t-31.5 -21.5t-39 -8t-39.5 8t-32 21.5t-21.5 31.5t-8 37q0 21 8 39t21.5 31.5t32 21.5t39.5 8q19 0 37 -8t32 -21.5t22.5 -31.5t8.5 -39zM399 0v528q0 226 -202 226q-42 0 -84 -15.5t-84 -44.5v92q42 23 83.5 35.5t86.5 12.5
q140 0 217 -86q35 -39 52 -90.5t17 -114.5v-543h-86zM-274 1016q0 43 -43 43t-43 -43t43 -43t43 43z" />
    <glyph glyph-name="uni0E4E_1" 
d="M-53 1339q-20 2 -38.5 3t-37.5 1q-95 0 -156 -24q-67 -28 -67 -76q0 -60 121 -57v-64q-48 2 -89.5 -4t-76.5 -18q-86 -28 -86 -80q0 -39 61 -39q59 0 117 31l31 -54q-75 -36 -148 -36q-137 0 -137 94q0 28 14 52t38 43t56 32.5t68 19.5q-47 26 -47 82q0 70 92 117
q89 47 223 47h31t31 -2v-68v0z" />
    <glyph glyph-name="currency" unicode="&#xa4;" horiz-adv-x="840" 
d="M422 729q-96 0 -160 -67q-65 -73 -65 -160q0 -94 63 -164q65 -68 162 -68q92 0 158 68q63 63 63 164q0 46 -16.5 87t-45.5 72t-70 49.5t-89 18.5zM8 164l148 145q-62 83 -62 193q0 114 62 188l-148 150l76 71l145 -145q79 59 193 59q55 0 105.5 -16t82.5 -43l150 145
l71 -71l-145 -150q59 -79 59 -188q0 -114 -59 -193l145 -145l-71 -76l-150 148q-15 -13 -36 -23.5t-47 -20.5q-53 -18 -105 -18q-110 0 -193 62l-145 -148z" />
    <glyph glyph-name="FL00A9h" unicode="&#xa9;" horiz-adv-x="1081" 
d="M1044 483q0 -213 -145 -358t-358 -145q-212 0 -359 145q-145 145 -145 358q0 107 36.5 195.5t108.5 161.5q147 145 359 145q213 0 358 -145q72 -73 108.5 -161.5t36.5 -195.5zM965 483q0 179 -121 305q-119 125 -303 125q-91 0 -167 -31t-136 -94q-121 -126 -121 -305
q0 -180 121 -307q60 -63 136 -94t167 -31q184 0 303 125q121 127 121 307zM803 377q-7 -48 -28.5 -86.5t-54.5 -64.5t-75.5 -40t-91.5 -14q-68 0 -122 23t-92 64t-58.5 98.5t-20.5 125.5q0 69 20.5 126t58.5 98t92 63.5t122 22.5q49 0 91.5 -14t75.5 -40t54.5 -64.5
t28.5 -86.5h-70q-27 140 -178 143q-53 0 -94.5 -18t-70 -51t-43.5 -78.5t-15 -100.5t15 -101t43.5 -79t70 -51.5t94.5 -18.5q151 0 178 144h70z" />
    <glyph glyph-name="fongmanfunnuthai" unicode="&#xf880;" 
 />
    <glyph glyph-name="lochula.short" unicode="&#xf71d;" 
 />
    <glyph glyph-name="numbersign" unicode="#" horiz-adv-x="762" 
d="M569 573l-28 -211h141v-61h-150l-43 -301h-67l43 301h-201l-43 -301h-67l43 301h-150v61h158l28 211h-147v62h156l43 299h67l-43 -299h201l43 299h68l-43 -299h141v-62h-150zM301 573l-29 -211h201l29 211h-201z" />
    <glyph glyph-name="dollar" unicode="$" horiz-adv-x="766" 
d="M717 260q0 -45 -11 -84.5t-34 -71.5q-77 -110 -260 -116v-123h-52v123q-326 18 -311 329h82q-6 -228 229 -249v385q-2 2 -6 3t-6 1q-66 17 -112.5 35.5t-75.5 39.5q-84 61 -84 179q0 94 55 168q76 97 229 100v113h52v-115q60 -6 108 -27.5t86 -56.5q80 -80 80 -209h-80
q-9 191 -194 215v-367q142 -33 209 -73q96 -69 96 -199zM360 901q-202 -9 -202 -188q0 -119 202 -168v356zM635 258q0 78 -68 125q-23 14 -61.5 28.5t-93.5 28.5v-374q42 2 78 12.5t67 32.5q78 52 78 147z" />
    <glyph glyph-name="zerowidthnonjoiner" unicode="&#x200c;" 
 />
    <glyph glyph-name="zerowidthjoiner" unicode="&#x200d;" 
 />
    <glyph glyph-name="F881" 
 />
    <glyph glyph-name="F882" 
 />
    <glyph glyph-name="saraueesp2" 
d="M-412 1167v144h88v-144h-88zM-846 922v82h357v102h88v-102h61v102h88v-184h-594z" />
    <glyph glyph-name="saraisp" 
d="M-831 922v82h634v-82h-634z" />
    <glyph glyph-name="saraiisp" 
d="M-831 922v82h546v102h88v-184h-634z" />
    <glyph glyph-name="ampersand" unicode="&#x26;" horiz-adv-x="834" 
d="M735 0l-98 125q-109 -145 -287 -145q-130 0 -209 69q-86 74 -86 201q0 80 58.5 152t177.5 135q-62 77 -78 106q-20 32 -29.5 64.5t-9.5 64.5q0 42 16.5 77.5t45 61t67.5 40t84 14.5t84.5 -14.5t68.5 -40t45.5 -61t16.5 -77.5q0 -132 -192 -254l215 -254q30 64 30 162h84
q0 -72 -14 -129t-43 -102l158 -195h-105zM518 772q0 57 -37 91t-94 34q-28 0 -52 -9t-41.5 -25t-27.5 -39.5t-10 -51.5q0 -57 113 -201q149 95 149 201zM340 483q-203 -104 -203 -241q0 -43 17.5 -79t46.5 -61.5t68 -40t83 -14.5q132 0 232 139z" />
    <glyph glyph-name="percent" unicode="%" horiz-adv-x="1198" 
d="M1094 236q0 -256 -211 -256t-211 256t211 256t211 -256zM322 -45h-66l612 1024h64zM518 698q0 -256 -211 -256q-209 0 -209 256t209 256q211 0 211 -256zM1022 233q0 197 -139 197q-140 0 -140 -197q0 -192 140 -192q139 0 139 192zM446 698q0 195 -139 195
q-137 0 -137 -195q0 -194 137 -194q139 0 139 194z" />
    <glyph glyph-name="parenleft" unicode="(" horiz-adv-x="352" 
d="M272 -213q-190 284 -190 621q0 338 190 622h68q-174 -283 -174 -622q0 -338 174 -621h-68z" />
    <glyph glyph-name="quotesingle" unicode="'" horiz-adv-x="375" 
d="M145 637v328h82v-328h-82z" />
    </font>
</defs>
</svg>
